<svg width="107" height="20" viewBox="0 0 107 20" fill="none" xmlns="http://www.w3.org/2000/svg">
<path d="M0.992 2.2H8.624C10.448 2.2 12.056 2.552 13.448 3.256C14.856 3.944 15.944 4.92 16.712 6.184C17.496 7.448 17.888 8.92 17.888 10.6C17.888 12.28 17.496 13.752 16.712 15.016C15.944 16.28 14.856 17.264 13.448 17.968C12.056 18.656 10.448 19 8.624 19H0.992V2.2ZM8.432 15.808C10.112 15.808 11.448 15.344 12.44 14.416C13.448 13.472 13.952 12.2 13.952 10.6C13.952 9 13.448 7.736 12.44 6.808C11.448 5.864 10.112 5.392 8.432 5.392H4.88V15.808H8.432ZM20.5561 6.088H24.3001V19H20.5561V6.088ZM22.4281 4.288C21.7401 4.288 21.1801 4.088 20.7481 3.688C20.3161 3.288 20.1001 2.792 20.1001 2.2C20.1001 1.608 20.3161 1.112 20.7481 0.711999C21.1801 0.311999 21.7401 0.111999 22.4281 0.111999C23.1161 0.111999 23.6761 0.303999 24.1081 0.688C24.5401 1.072 24.7561 1.552 24.7561 2.128C24.7561 2.752 24.5401 3.272 24.1081 3.688C23.6761 4.088 23.1161 4.288 22.4281 4.288ZM35.3109 2.2C36.7989 2.2 38.0869 2.448 39.1749 2.944C40.2789 3.44 41.1269 4.144 41.7189 5.056C42.3109 5.968 42.6069 7.048 42.6069 8.296C42.6069 9.528 42.3109 10.608 41.7189 11.536C41.1269 12.448 40.2789 13.152 39.1749 13.648C38.0869 14.128 36.7989 14.368 35.3109 14.368H31.9269V19H28.0389V2.2H35.3109ZM35.0949 11.2C36.2629 11.2 37.1509 10.952 37.7589 10.456C38.3669 9.944 38.6709 9.224 38.6709 8.296C38.6709 7.352 38.3669 6.632 37.7589 6.136C37.1509 5.624 36.2629 5.368 35.0949 5.368H31.9269V11.2H35.0949ZM50.2094 5.896C52.2094 5.896 53.7454 6.376 54.8174 7.336C55.8894 8.28 56.4254 9.712 56.4254 11.632V19H52.9214V17.392C52.2174 18.592 50.9054 19.192 48.9854 19.192C47.9934 19.192 47.1294 19.024 46.3934 18.688C45.6734 18.352 45.1214 17.888 44.7374 17.296C44.3534 16.704 44.1614 16.032 44.1614 15.28C44.1614 14.08 44.6094 13.136 45.5054 12.448C46.4174 11.76 47.8174 11.416 49.7054 11.416H52.6814C52.6814 10.6 52.4334 9.976 51.9374 9.544C51.4414 9.096 50.6974 8.872 49.7054 8.872C49.0174 8.872 48.3374 8.984 47.6654 9.208C47.0094 9.416 46.4494 9.704 45.9854 10.072L44.6414 7.456C45.3454 6.96 46.1854 6.576 47.1614 6.304C48.1534 6.032 49.1694 5.896 50.2094 5.896ZM49.9214 16.672C50.5614 16.672 51.1294 16.528 51.6254 16.24C52.1214 15.936 52.4734 15.496 52.6814 14.92V13.6H50.1134C48.5774 13.6 47.8094 14.104 47.8094 15.112C47.8094 15.592 47.9934 15.976 48.3614 16.264C48.7454 16.536 49.2654 16.672 49.9214 16.672ZM67.6619 5.896C69.2619 5.896 70.5499 6.376 71.5259 7.336C72.5179 8.296 73.0139 9.72 73.0139 11.608V19H69.2699V12.184C69.2699 11.16 69.0459 10.4 68.5979 9.904C68.1499 9.392 67.5019 9.136 66.6539 9.136C65.7099 9.136 64.9579 9.432 64.3979 10.024C63.8379 10.6 63.5579 11.464 63.5579 12.616V19H59.8139V6.088H63.3899V7.6C63.8859 7.056 64.5019 6.64 65.2379 6.352C65.9739 6.048 66.7819 5.896 67.6619 5.896ZM89.7003 1.192V19H86.1243V17.512C85.1963 18.632 83.8523 19.192 82.0923 19.192C80.8763 19.192 79.7723 18.92 78.7803 18.376C77.8043 17.832 77.0363 17.056 76.4763 16.048C75.9163 15.04 75.6363 13.872 75.6363 12.544C75.6363 11.216 75.9163 10.048 76.4763 9.04C77.0363 8.032 77.8043 7.256 78.7803 6.712C79.7723 6.168 80.8763 5.896 82.0923 5.896C83.7403 5.896 85.0283 6.416 85.9563 7.456V1.192H89.7003ZM82.7403 16.12C83.6843 16.12 84.4683 15.8 85.0923 15.16C85.7163 14.504 86.0283 13.632 86.0283 12.544C86.0283 11.456 85.7163 10.592 85.0923 9.952C84.4683 9.296 83.6843 8.968 82.7403 8.968C81.7803 8.968 80.9883 9.296 80.3643 9.952C79.7403 10.592 79.4283 11.456 79.4283 12.544C79.4283 13.632 79.7403 14.504 80.3643 15.16C80.9883 15.8 81.7803 16.12 82.7403 16.12ZM106.174 6.088V19H102.622V17.464C102.126 18.024 101.534 18.456 100.846 18.76C100.158 19.048 99.4135 19.192 98.6135 19.192C96.9175 19.192 95.5735 18.704 94.5815 17.728C93.5895 16.752 93.0935 15.304 93.0935 13.384V6.088H96.8375V12.832C96.8375 14.912 97.7095 15.952 99.4535 15.952C100.35 15.952 101.07 15.664 101.614 15.088C102.158 14.496 102.43 13.624 102.43 12.472V6.088H106.174Z" fill="#455EE9"/>
</svg>
